<svg id="Layer_1" data-name="Layer 1" xmlns="http://www.w3.org/2000/svg" viewBox="0 0 22.16 20.33"><defs><style>.cls-1{fill:none;stroke:#fff;stroke-linecap:round;stroke-linejoin:round;stroke-width:0.75px;}</style></defs><title>event-line-icon</title><path class="cls-1" d="M21,10.33a1.87,1.87,0,0,0,.75-1.76,2,2,0,0,0-2-1.63H14.25V2.8A2.63,2.63,0,0,0,11.62.17h-.76a.38.38,0,0,0-.38.38V3.73a.36.36,0,0,1-.05.19L7.64,8.46l-.17.75v9.07s.67,1.47,1.88,1.47H17.5a2,2,0,0,0,2-1.92,1.87,1.87,0,0,0-.38-1.1h0a1.85,1.85,0,0,0,1.72-1.09,1.88,1.88,0,0,0-.32-2A1.87,1.87,0,0,0,21,10.37Z" transform="translate(0 0.21)"/><rect class="cls-1" x="0.38" y="8.01" width="5" height="11.93"/></svg>