<svg id="Layer_1" data-name="Layer 1" xmlns="http://www.w3.org/2000/svg" viewBox="0 0 18.17 24.8"><defs><style>.cls-1{fill:none;stroke:#fff;stroke-linecap:round;stroke-linejoin:round;stroke-width:0.75px;}</style></defs><title>location-line-icon</title><path class="cls-1" d="M17.28,6.39a7.3,7.3,0,0,0-1-2.21h0a10.14,10.14,0,0,0-4-3.14h0A8.46,8.46,0,0,0,9,.38,9.12,9.12,0,0,0,6.81.65h0A9.44,9.44,0,0,0,3.53,2.21,7.23,7.23,0,0,0,.94,5.93,12.37,12.37,0,0,0,.43,8.22h0a15.72,15.72,0,0,0,0,2.54,22.49,22.49,0,0,0,.83,3.75,20.86,20.86,0,0,0,1.11,2.31,22.2,22.2,0,0,0,6.45,7.25l.5.36.46-.4a36.51,36.51,0,0,0,3.33-3.37A20.61,20.61,0,0,0,17,14.56h0a15.39,15.39,0,0,0,.8-3.73h0A13.6,13.6,0,0,0,17.28,6.39ZM9,14.39A5.33,5.33,0,1,1,14.35,9,5.33,5.33,0,0,1,9,14.39H9Z"/></svg>