<svg id="Layer_1" data-name="Layer 1" xmlns="http://www.w3.org/2000/svg" viewBox="0 0 13.42 18.57"><defs><style>.cls-1{fill:#fff;}</style></defs><title>location-icon</title><path class="cls-1" d="M18.58,5a5.63,5.63,0,0,0-.79-1.71v0a7.82,7.82,0,0,0-3-2.38h0A6.53,6.53,0,0,0,12.18.4a7,7,0,0,0-1.68.2h0A7.28,7.28,0,0,0,8,1.82,5.58,5.58,0,0,0,6,4.69a9.54,9.54,0,0,0-.39,1.77h0a12.13,12.13,0,0,0,0,2,17.35,17.35,0,0,0,.64,2.9A16.09,16.09,0,0,0,7,13.1a17.12,17.12,0,0,0,5,5.6l.38.27.35-.31a28.17,28.17,0,0,0,2.57-2.6,15.9,15.9,0,0,0,3-4.7h0a11.87,11.87,0,0,0,.61-2.87v0A10.49,10.49,0,0,0,18.58,5Zm-6.37,6.61a4.57,4.57,0,1,1,4.57-4.57A4.57,4.57,0,0,1,12.21,11.63Z" transform="translate(-5.52 -0.4)"/></svg>