<svg id="Layer_1" data-name="Layer 1" xmlns="http://www.w3.org/2000/svg" viewBox="0 0 200.53 200.53"><defs><style>.cls-1{fill:#fff;}.cls-2{fill:none;stroke:#e66a34;stroke-width:19.34px;}</style></defs><title>Artboard 1</title><path class="cls-1" d="M139.72,90.57l0,0c-26.07-6.08-29-8-44.47-29.68l-.13-.17,0-.06h0a32.18,32.18,0,1,0-33.5,50l0,0c26.07,6.08,29,8,44.48,29.67l.12.17,0,.06h0a32.18,32.18,0,1,0,33.49-50ZM54.93,77.23c.94,4.52-1.16,8.79-4.69,9.53s-7.16-2.33-8.11-6.86,1.15-8.79,4.68-9.53S54,72.7,54.93,77.23ZM53.2,64.64a5.78,5.78,0,1,1,7.85-.53A5.56,5.56,0,0,1,53.2,64.64ZM68.42,76.06a3.69,3.69,0,1,1-.82-5.34A3.83,3.83,0,0,1,68.42,76.06Z"/><circle class="cls-2" cx="100.18" cy="100.31" r="90.6"/></svg>