<svg id="Layer_1" data-name="Layer 1" xmlns="http://www.w3.org/2000/svg" viewBox="0 0 18.88 18.88"><defs><style>.cls-1{fill:#fff;}.cls-2{fill:none;stroke:#fff;stroke-miterlimit:10;}</style></defs><title>opening-times-icon</title><path class="cls-1" d="M20.7,8.62a8.88,8.88,0,0,0-7.35-7.44L11,1.11A8.89,8.89,0,0,0,3.16,8.62l0,2.4A8.89,8.89,0,0,0,11,18.75l2.4-.07A8.88,8.88,0,0,0,20.73,11Zm-8.65,3.13-3.77,0a1,1,0,0,1-.65-.24,1.15,1.15,0,0,1-.38-.86,1.07,1.07,0,0,1,1-1.12l2.56,0,0-5.77a1.11,1.11,0,1,1,2.23,0l0,6.49c0,.06,0,.32,0,.39A1.07,1.07,0,0,1,12.05,11.74Z" transform="translate(-2.48 -0.48)"/><circle class="cls-2" cx="9.44" cy="9.44" r="8.94"/></svg>