<svg id="Layer_1" data-name="Layer 1" xmlns="http://www.w3.org/2000/svg" viewBox="0 0 12.23 18.37"><defs><style>.cls-1,.cls-2{fill:#fff;}.cls-1{fill-rule:evenodd;}</style></defs><title>telephone-icon</title><path class="cls-1" d="M16.73,12.94l-1.4.6-.07,0,1.92,4.51.07,0,1.4-.6A1.08,1.08,0,0,0,19.13,16l-1-2.41A1.08,1.08,0,0,0,16.73,12.94Z" transform="translate(-7.01 -0.4)"/><path class="cls-1" d="M11.41.47l-1.4.6-.07,0,1.92,4.51.07,0,1.4-.6a1.08,1.08,0,0,0,.47-1.45l-1-2.41A1.08,1.08,0,0,0,11.41.47Z" transform="translate(-7.01 -0.4)"/><path class="cls-2" d="M11,11a6.62,6.62,0,0,1-.4-4.31L8.64,2.17c-1.92,2-2.22,6.06-.52,10s4.84,6.59,7.6,6.57L13.8,14.26A6.62,6.62,0,0,1,11,11Z" transform="translate(-7.01 -0.4)"/></svg>