<svg xmlns="http://www.w3.org/2000/svg" viewBox="0 0 200.53 200.53"><defs><style>.cls-1{fill:none;stroke:#e66a34;stroke-width:19.34px;}.cls-2{fill:#fff;}</style></defs><title>vegan-icon</title><g id="Layer_2" data-name="Layer 2"><g id="Layer_1-2" data-name="Layer 1"><circle class="cls-1" cx="100.27" cy="100.27" r="90.6"/><path class="cls-2" d="M123.6,34.78C114.92,36.1,79.19,48,60.15,84.45c-8.72,16.7-10.74,35.44.72,51.29a75.47,75.47,0,0,0,11.61,11.84C71,139.28,72.3,107,85,87.66c-8.55,28.82-9.76,65.76-1.41,83.56,2.52,2.57,7.27.36,8.37-1.23-3.44-5-7.46-11.55-7.77-18,3.29-1.14,7.69-2.43,10.11-3.64,6.8-3.4,23.49-9.89,27-31.94,2.68-17-3.73-32.22-5.75-49.07C113.31,49.19,123.6,34.78,123.6,34.78Z"/></g></g></svg>