<svg xmlns="http://www.w3.org/2000/svg" viewBox="0 0 200.53 200.53"><defs><style>.cls-1{fill:none;stroke:#e66a34;stroke-width:19.34px;}.cls-2{fill:#fff;}</style></defs><title>vegetarian-icon</title><g id="Layer_2" data-name="Layer 2"><g id="Layer_1-2" data-name="Layer 1"><circle class="cls-1" cx="100.27" cy="100.27" r="90.6"/><path class="cls-2" d="M93.44,159.41h-36a7.74,7.74,0,0,1-7.73-7.74V97.52c0-5.31,2.56-10.53,5.53-16.59,4-8.1,8.92-18.15,9.07-32a3.1,3.1,0,0,1-2.36-3V43.51a3.1,3.1,0,0,1,3.1-3.1H85.83a3.1,3.1,0,0,1,3.1,3.1v2.42a3.11,3.11,0,0,1-2.36,3c.15,13.84,5.09,23.89,9.06,32,3,6.06,5.54,11.28,5.54,16.59v54.15A7.74,7.74,0,0,1,93.44,159.41Z"/><path class="cls-2" d="M117.51,137.33c-8.49-17.62-5.57-31.19-1.35-39.87,7.66-15.74,20.2-21.9,22.94-41.36,1.16-8.23-1.2-17.32-4.62-22.69,20.54,6.15,32.25,36,25.39,61.4-5.87,21.8-26.55,26.28-33.44,45.83-2.75,7.78-3.43,14.45,6.12,21.79-.46,5.56-5,4.64-5,4.64-5.61-10-6.43-15.36-6.43-22.47,0-43.26,24.28-41.79,23-69.26C140.52,98.73,115.77,107.89,117.51,137.33Z"/></g></g></svg>