<svg xmlns="http://www.w3.org/2000/svg" viewBox="0 0 143.06 273.25"><defs><style>.cls-1{fill:#fff;}.cls-2{fill:#5a5955;}</style></defs><title>app-icon</title><g id="Layer_2" data-name="Layer 2"><g id="Layer_1-2" data-name="Layer 1"><path class="cls-1" d="M119.65,0H23.41A23.3,23.3,0,0,0,0,23.2V250.05a23.3,23.3,0,0,0,23.41,23.2h96.24a23.31,23.31,0,0,0,23.41-23.2V23.2A23.31,23.31,0,0,0,119.65,0Zm10.07,227.41H12V40.52H129.71Z"/><path class="cls-2" d="M81.7,24.65a2.19,2.19,0,0,1-2.36,2h-16a2.19,2.19,0,0,1-2.36-2h0a2.19,2.19,0,0,1,2.36-2h16a2.19,2.19,0,0,1,2.36,2Z"/><circle class="cls-2" cx="71.24" cy="15.56" r="2"/><path class="cls-1" d="M45.74,102v11.46a3,3,0,0,0,3,3H82.87a28.82,28.82,0,0,1,0,57.63H48.72a18.22,18.22,0,1,1,0-36.45H83.39a7.63,7.63,0,0,1,0,15.27H48.71a3,3,0,1,0,0,5.92H82.83a13.55,13.55,0,0,0,0-27.1H48.72a18.25,18.25,0,0,1-18.24-18.23s0-4.36,0-11.74c0-10.54,15.22-10.33,15.22.28"/></g></g></svg>