<?xml version="1.0" standalone="no"?>
<!DOCTYPE svg PUBLIC "-//W3C//DTD SVG 20010904//EN"
 "http://www.w3.org/TR/2001/REC-SVG-20010904/DTD/svg10.dtd">
<svg version="1.0" xmlns="http://www.w3.org/2000/svg"
 width="75.000000pt" height="75.000000pt" viewBox="0 0 75.000000 75.000000"
 preserveAspectRatio="xMidYMid meet">
<metadata>
Created by potrace 1.11, written by Peter Selinger 2001-2013
</metadata>
<g transform="translate(0.000000,75.000000) scale(0.100000,-0.100000)"
fill="#000000" stroke="none">
<path d="M20 728 c-19 -21 -21 -32 -17 -113 5 -111 6 -117 40 -155 44 -49 66
-53 279 -56 222 -2 243 -8 273 -74 19 -42 13 -98 -14 -128 -37 -43 -68 -49
-246 -48 -170 1 -195 5 -195 31 0 21 20 24 172 24 196 0 201 0 220 15 10 7 21
27 24 44 5 24 1 36 -18 55 -25 25 -25 25 -224 23 -227 -1 -249 -8 -293 -86
-29 -53 -25 -123 10 -174 22 -32 64 -62 82 -58 4 1 7 -2 7 -8 0 -6 77 -10 211
-10 115 0 208 4 205 9 -3 4 6 7 19 5 14 -1 25 2 25 7 0 6 5 7 10 4 6 -3 10 -1
10 4 0 6 6 11 13 11 25 0 121 105 111 122 -3 4 0 8 6 8 6 0 9 4 5 9 -3 5 -1
12 3 15 5 3 10 32 11 64 3 80 -30 154 -94 210 -26 23 -51 39 -56 36 -5 -3 -9
0 -9 5 0 6 -8 11 -18 11 -10 0 -22 3 -25 6 -4 4 -91 7 -194 7 -108 0 -193 4
-200 10 -9 6 -13 37 -13 86 0 74 -1 77 -29 94 -39 23 -66 21 -91 -5z"/>
</g>
</svg>
